<svg width="367" height="367" viewBox="0 0 367 367" fill="none" xmlns="http://www.w3.org/2000/svg">
<circle cx="183.637" cy="183.408" r="182.668" fill="#2AB6B5"/>
<path fill-rule="evenodd" clip-rule="evenodd" d="M265.784 94.4194C262.899 91.9985 258.841 91.5499 255.497 93.2819L103.195 172.16C99.8603 173.888 97.8862 177.447 98.1866 181.191C98.487 184.935 101.004 188.134 104.572 189.307L168.522 210.331L200.332 269.658C202.106 272.969 205.694 274.892 209.433 274.538C213.173 274.184 216.335 271.622 217.457 268.037L268.69 104.353C269.815 100.758 268.669 96.8403 265.784 94.4194ZM244.196 120.147L206.283 241.272L183.203 198.226C182.071 196.114 180.171 194.519 177.894 193.771L131.494 178.517L244.196 120.147Z" fill="#EDEDED"/>
</svg>
