<svg width="366" height="367" viewBox="0 0 366 367" fill="none" xmlns="http://www.w3.org/2000/svg">
<circle cx="183.332" cy="183.496" r="182.668" fill="#EB1C36"/>
<path fill-rule="evenodd" clip-rule="evenodd" d="M265.479 94.507C262.594 92.086 258.537 91.6374 255.192 93.3694L102.891 172.247C99.5559 173.975 97.5818 177.534 97.8822 181.279C98.1826 185.023 100.7 188.222 104.268 189.394L168.218 210.419L200.028 269.746C201.802 273.057 205.389 274.98 209.129 274.626C212.868 274.271 216.031 271.71 217.153 268.124L268.386 104.44C269.511 100.846 268.364 96.9278 265.479 94.507ZM243.891 120.235L205.979 241.36L182.898 198.313C181.767 196.202 179.866 194.607 177.59 193.858L131.189 178.604L243.891 120.235Z" fill="#EDEDED"/>
</svg>
